/* XPM */
static char * ifrac_ico_big_xpm[] = {
"52 40 162 2",
"  	c None",
". 	c #CECECE",
"+ 	c #E6E6E6",
"@ 	c #FEFEFE",
"# 	c #B6B6B6",
"$ 	c #9E9E9E",
"% 	c #DEDEDE",
"& 	c #BEBEBE",
"* 	c #AEAEAE",
"= 	c #CA9068",
"- 	c #C65202",
"; 	c #D38146",
"> 	c #DA9868",
", 	c #D29468",
"' 	c #CCAF9B",
") 	c #DADADA",
"! 	c #E4C7B3",
"~ 	c #E2A880",
"{ 	c #DEA074",
"] 	c #C0A38F",
"^ 	c #AAAAAA",
"/ 	c #C499C4",
"( 	c #EA94EA",
"_ 	c #DA84DA",
": 	c #CA74CA",
"< 	c #C26CC2",
"[ 	c #BA64BA",
"} 	c #AC81AC",
"| 	c #D65A02",
"1 	c #E66202",
"2 	c #B27850",
"3 	c #D52BD5",
"4 	c #B7794D",
"5 	c #945A32",
"6 	c #997C68",
"7 	c #A6A6A6",
"8 	c #B489B4",
"9 	c #BC56AA",
"0 	c #AE368C",
"a 	c #A0438F",
"b 	c #925092",
"c 	c #987798",
"d 	c #989898",
"e 	c #626262",
"f 	c #808080",
"g 	c #A28080",
"h 	c #864242",
"i 	c #862264",
"j 	c #860286",
"k 	c #9B9B9B",
"l 	c #979797",
"m 	c #BC91BC",
"n 	c #AE729D",
"o 	c #927070",
"p 	c #8C397B",
"q 	c #C6885C",
"r 	c #936541",
"s 	c #927050",
"t 	c #988777",
"u 	c #AA68AA",
"v 	c #745232",
"w 	c #864202",
"x 	c #C280C2",
"y 	c #CBA58A",
"z 	c #B49783",
"A 	c #C2C2C2",
"B 	c #D8BBA7",
"C 	c #A58874",
"D 	c #836141",
"E 	c #B897B8",
"F 	c #9D729D",
"G 	c #8F8F8F",
"H 	c #7A6959",
"I 	c #888888",
"J 	c #7A597A",
"K 	c #909090",
"L 	c #743274",
"M 	c #A57AA5",
"N 	c #834183",
"O 	c #C6C6C6",
"P 	c #A7A7A7",
"Q 	c #8C8C8C",
"R 	c #8585BF",
"S 	c #6060B8",
"T 	c #6464BC",
"U 	c #6868C0",
"V 	c #8F8FBB",
"W 	c #B08FB0",
"X 	c #0202B1",
"Y 	c #5050A8",
"Z 	c #9B9BC7",
"` 	c #4D4DA4",
" .	c #32328A",
"..	c #414198",
"+.	c #7777A3",
"@.	c #897878",
"#.	c #988787",
"$.	c #745252",
"%.	c #8A8AC4",
"&.	c #7474A0",
"*.	c #B2B2B2",
"=.	c #C68C64",
"-.	c #958474",
";.	c #B37474",
">.	c #CE5050",
",.	c #B67777",
"'.	c #8B6969",
").	c #C28860",
"!.	c #E66868",
"~.	c #FE0202",
"{.	c #5C5CB4",
"].	c #B0937F",
"^.	c #D69797",
"/.	c #DE6060",
"(.	c #CA8B8B",
"_.	c #B03232",
":.	c #A15151",
"<.	c #A08F8F",
"[.	c #9A7878",
"}.	c #8E6161",
"|.	c #B0B0B0",
"1.	c #B0CECE",
"2.	c #92CECE",
"3.	c #98B6B6",
"4.	c #95B3B3",
"5.	c #A9C7C7",
"6.	c #C2FEFE",
"7.	c #B6F2F2",
"8.	c #AAE6E6",
"9.	c #A6E2E2",
"0.	c #A2DEDE",
"a.	c #ACCACA",
"b.	c #A3A3A3",
"c.	c #86FEFE",
"d.	c #8383AF",
"e.	c #686894",
"f.	c #BCDADA",
"g.	c #9AD6D6",
"h.	c #B8D6D6",
"i.	c #9EDADA",
"j.	c #CACACA",
"k.	c #71B0B0",
"l.	c #509292",
"m.	c #7FA0A0",
"n.	c #996B6B",
"o.	c #028686",
"p.	c #83B4B4",
"q.	c #50B2B2",
"r.	c #689999",
"s.	c #B3B3B3",
"t.	c #A7D8D8",
"u.	c #68CACA",
"v.	c #64C6C6",
"w.	c #60C2C2",
"x.	c #7FB0B0",
"y.	c #589A9A",
"z.	c #02C6C6",
"A.	c #60A2A2",
"B.	c #419999",
"C.	c #779898",
"D.	c #8FC0C0",
"E.	c #6AABAB",
"                                                . . . . . . + @ @ @ + . . . . . # $ . @ % & * $ $ $ . @ ",
"                                                . . . . . . + @ @ @ + . . . . . # $ . @ % & * $ $ $ . @ ",
"                                          . = - ; > , = ' . ) + ! ~ { > , = ] # ^ $ / ( _ : < [ } $ # . ",
"                                        . . = - | 1 | - = . . . = - | 1 | - 2 $ $ $ [ 3 3 3 3 3 [ $ $ $ ",
"                                        . . ' = , > { ~ ! + ) . ' = , > 4 5 6 $ 7 * 8 [ < : 9 0 a b c $ ",
"                                        . . . . . . + @ @ @ + . . . . . d e f $ * & * $ * & g h i j b $ ",
"                                  . = - ; > , = ' . ) + ! ~ { > , = ] # k f l * m : < [ < : n o p j b $ ",
"                                . . = - | 1 | - = . . . = - | 1 | - 2 $ $ $ * & : 3 3 3 3 3 [ $ b j b $ ",
"                                . . ' = , > q 2 ' + ) . ' = , > 4 5 r s t $ * & : 3 3 3 3 3 [ $ b j u . ",
"                                . . . . . . # $ . @ + . . . . . d e v w s $ * & : 3 3 3 3 3 [ $ b j x @ ",
"                              . y = = = = = z $ A + B = = = = = C f D w s $ * & : 3 3 3 3 3 [ $ c b E % ",
"                            . . = - - - - - 2 $ # . = - - - - - 2 $ s w s $ * & : 3 3 3 3 3 [ $ $ $ * & ",
"                            . . = - - - - - 2 $ # . = - - - - - 2 $ s w D f l * 8 [ [ [ [ [ F f G $ 7 * ",
"                            . . = - - - - - 2 $ # . = - - - - - 2 $ s w v e f $ $ $ $ $ $ $ f e f $ $ $ ",
"                            . . = - - - - - 2 $ # . = - - - - - 2 $ t s H e f $ 7 * * * * * I e J b c $ ",
"                            . . = - - - - - 2 $ # . = - - - - - 2 $ $ $ f e f $ * & & & & & K e L j b $ ",
"                            # # z 2 2 2 2 2 6 f k # z 2 2 2 2 2 6 f G $ G f l * m : : : : : M f N j b $ ",
"                            $ $ $ $ $ $ $ $ f e f $ $ $ $ $ $ $ f e f $ $ $ * & : 3 3 3 3 3 [ $ b j b $ ",
"          & O . . . . . # $ & . A # # # # # k f P . A # # # # # Q e H s t $ * & : 3 3 3 3 3 [ $ b j u . ",
"        & & O . . . . . # $ . @ + . . . . . # $ . @ + . . . . . d e v w s $ * & : 3 3 3 3 3 [ $ b j x @ ",
"      . R S T U U U V # ^ $ A + B = = = = = z $ A + B = = = = = C f D w s $ * & : 3 3 3 3 3 [ $ c b W . ",
"    . . U X X X X X Y $ $ $ # . = - - - - - 2 $ # . = - - - - - 2 $ s w s $ * & : 3 3 3 3 3 [ $ $ $ $ $ ",
"    . . Z U U U `  ...Y +.$ # . = - - - - - 2 $ # . = - - - - - 2 $ s w D f l * 8 [ [ [ [ [ F f @.o #.$ ",
"    . . . . . . d e  .X Y $ # . = - - - - - 2 $ # . = - - - - - 2 $ s w v e f $ $ $ $ $ $ $ f e $.h o $ ",
". . %.U U U U U &.f ..X Y $ *.O =.- - - - - 2 $ # . = - - - - - 2 $ t s -.d ;.>.,.$ ,.>.,.$ l K '.h o $ ",
". . U X X X X X Y $ Y X Y $ * & ).- - - - - 2 $ # . = - - - - - 2 $ $ $ # . !.~.>.$ >.~.>.$ * & g h o $ ",
". . U X X X X X Y $ Y X {.# *.* ].2 2 2 2 2 6 f k # z 2 2 2 2 2 6 f P . . . ^./.(.# ;._.:.o <.* [.h }.$ ",
". . U X X X X X Y $ Y X U . # $ $ $ $ $ $ $ f e f $ $ $ $ $ $ $ f e |.@ + . O & O . d e $.h o $ o h h   ",
". . U X X X X X Y $ +.Y V . 1.2.2.2.2.2.3.$ k d 4.2.2.2.2.2.3.$ l K 5.6.7.8.9.0.a.# b.K '.h [.* <.o o   ",
". . U X X X X X Y $ $ $ # . 8.c.c.c.c.c.2.$ # . 8.c.c.c.c.c.2.$ * & 0.c.c.c.c.c.2.$ * & g h g & * $ $   ",
"# # d.Y Y Y Y Y e.f P . . . f.8.9.0.g.2.1.. . . h.0.9.8.i.2.1.. j.O h.8.8.8.i.2.k.l.m.* [.h n.& * $     ",
"$ $ $ $ $ $ $ $ f e |.@ + . . . O & * $ . @ + . O & O . # $ . @ + . . . . . # $ l.o.l.$ o h h           ",
"# # p.q.q.q.q.q.r.f s.+ t.u.u.u.v.w.x.$ A + t.u.v.w.v.u.p.$ A + t.u.u.u.u.u.p.$ l.o.y.* <.o o           ",
". . u.z.z.z.z.z.q.$ # . u.z.z.z.z.z.q.$ # . u.z.z.z.z.z.q.$ # . u.z.z.z.z.z.q.$ l.o.A.& * $ $           ",
". . u.z.z.z.z.z.q.$ # . u.z.z.z.z.z.q.$ # . u.z.z.z.z.z.q.$ # . u.z.z.z.z.z.q.$ l.o.B.& * $             ",
". . u.z.z.z.z.z.q.$ # . u.z.z.z.z.z.q.$ # . u.z.z.z.z.z.q.$ # . u.z.z.z.z.z.q.$ l.o.o.                  ",
". . u.z.z.z.z.z.q.$ # . u.z.z.z.z.z.q.$ # . u.z.z.z.z.z.q.$ # . u.z.z.z.z.z.q.$ C.l.l.                  ",
". . u.z.z.z.z.z.q.$ # . u.z.z.z.z.z.q.$ # . u.z.z.z.z.z.q.$ # . u.z.z.z.z.z.q.$ $ $ $                   ",
"# # p.q.q.q.q.q.D.. A # p.q.q.q.q.q.D.. A # p.q.q.q.q.q.D.. A # p.q.q.q.q.q.E.$ $ $                     ",
"$ $ $ $ $ $ $ $ . @ . $ $ $ $ $ $ $ . @ . $ $ $ $ $ $ $ . @ . $ $ $ $ $ $ $ $                           "};
