/* XPM */
static char * ifrac_ico_xpm[] = {
"26 20 17 1",
" 	c None",
".	c #0202B1",
"+	c #C65202",
"@	c #028686",
"#	c #626262",
"$	c #CECECE",
"%	c #864202",
"&	c #9E9E9E",
"*	c #860286",
"=	c #86FEFE",
"-	c #FEFEFE",
";	c #E66202",
">	c #D52BD5",
",	c #BEBEBE",
"'	c #864242",
")	c #02C6C6",
"!	c #FE0202",
"            $$$--$$$&-,&&-",
"          $+;+$$+;+&&>>>&&",
"          $$$--$$$#&,&,'*&",
"        $+;+$$+;+&&,>>>&*&",
"        $$$&-$$$#%&,>>>&*-",
"       $+++&$+++&%&,>>>&&,",
"       $+++&$+++&%#&&&&#&&",
"       $+++&$+++&&#&,,,#*&",
"       &&&&#&&&&#&&,>>>&*&",
"  ,$$$&-$$$&-$$$#%&,>>>&*-",
" $...&&$+++&$+++&%&,>>>&&&",
" $$$#.&$+++&$+++&%#&&&&#'&",
"$...&.&,+++&$+++&&$!&!&,'&",
"$...&.$&&&&#&&&&#-$,$#'&' ",
"$...&&$===&$===&,===&,',& ",
"&&&&#-$$,&-$,$&-$$$&@&'   ",
"$)))&$)))&$)))&$)))&@,&   ",
"$)))&$)))&$)))&$)))&@     ",
"$)))&$)))&$)))&$)))&&     ",
"&&&&-&&&&-&&&&-&&&&       "};
