/* XPM */
static char * ifrac_ico1_xpm[] = {
"32 32 6 1",
" 	c #FFFFFFFFFFFF",
".	c #000000000000",
"X	c #00000000FFFF",
"o	c #861700000000",
"O	c #FFFF00000000",
"+	c #000000008617",
"          .         .           ",
"        ..X..     ..X..         ",
"      ..XXXXX.. ..XXXXX..       ",
"     .XXXXXXXXX.XXXXXXXXX.      ",
"   .....XXXXX.....XXXXX.....    ",
" ..Xo.O+..X..Xo.O+..X..Xo.O+..  ",
".oXoX.+O+O.oXoX.+O+O.oXoX.+O+O. ",
".XoXo.O+O+.XoXo.O+O+.XoXo.O+O+. ",
".oXoX.+O+O.oXoX.+O+O.oXoX.+O+O. ",
".XoXo.O+O+.XoXo.O+O+.XoXo.O+O+. ",
".oX..X..+O.oX..X..+O.oX..X..+O. ",
"...OXOXO.....OXOXO.....OXOXO... ",
".XOXOXOXOX.XOXOXOXOX.XOXOXOXOX. ",
"...OXOXO.....OXOXO.....OXOXO... ",
".O+..X..Xo.O+..X..Xo.O+..X..Xo. ",
".+O+O.oXoX.+O+O.oXoX.+O+O.oXoX. ",
".O+O+.XoXo.O+O+.XoXo.O+O+.XoXo. ",
".+O+O.oXoX.+O+O.oXoX.+O+O.oXoX. ",
".O+O+.XoXo.O+O+.XoXo.O+O+.XoXo. ",
" ..+O.oX..O..+O.oX..O..+O.oX..  ",
"   .....OOOOO.....OOOOO.....    ",
"     .OOOOOOOOO.OOOOOOOOO.      ",
"      ..OOOOO.. ..OOOOO..       ",
"  O     ..O..     ..O..    OO   ",
"   OO     .   OOO   .     O     ",
"   O   ++     O O     +   O     ",
"   O    +++   O O   +++   O     ",
"   O    +     OO    + +   O     ",
"  OO    +++   O O   +++   O     ",
"    O   +     O O   + +    OO   ",
"        +           + +         ",
"                                "};
