/* XPM */
static char * ifrac_ico_xpm[] = {
"31 25 6 1",
" 	c None",
".	c #000000",
"+	c #0000FF",
"@	c #860000",
"#	c #FF0000",
"$	c #000086",
"          .         .          ",
"        ..+..     ..+..        ",
"      ..+++++.. ..+++++..      ",
"     .+++++++++.+++++++++.     ",
"   .....+++++.....+++++.....   ",
" ..+@.#$..+..+@.#$..+..+@.#$.. ",
".@+@+.$#$#.@+@+.$#$#.@+@+.$#$#.",
".+@+@.#$#$.+@+@.#$#$.+@+@.#$#$.",
".@+@+.$#$#.@+@+.$#$#.@+@+.$#$#.",
".+@+@.#$#$.+@+@.#$#$.+@+@.#$#$.",
".@+..+..$#.@+..+..$#.@+..+..$#.",
"...#+#+#.....#+#+#.....#+#+#...",
".+#+#+#+#+.+#+#+#+#+.+#+#+#+#+.",
"...#+#+#.....#+#+#.....#+#+#...",
".#$..+..+@.#$..+..+@.#$..+..+@.",
".$#$#.@+@+.$#$#.@+@+.$#$#.@+@+.",
".#$#$.+@+@.#$#$.+@+@.#$#$.+@+@.",
".$#$#.@+@+.$#$#.@+@+.$#$#.@+@+.",
".#$#$.+@+@.#$#$.+@+@.#$#$.+@+@.",
" ..$#.@+..#..$#.@+..#..$#.@+.. ",
"   .....#####.....#####.....   ",
"     .#########.#########.     ",
"      ..#####.. ..#####..      ",
"        ..#..     ..#..        ",
"          .         .          "};
